#!OML:ASF F:\VICON\USERDATA\INSTALL\Justin_Nancy\Justin_Nancy.ASF
:FULLY-SPECIFIED
:DEGREES
123
root 0.880302 17.8392 -15.6166 7.24368 -2.25589 1.01344
lowerback 5.59358 -0.198776 -2.17163
upperback -0.23178 -0.329178 2.35969
thorax -3.3525 -0.10618 3.69113
lowerneck -16.6003 -4.14116 -10.2685
upperneck 22.6543 -4.34034 5.39711
head 10.3468 -2.25882 3.03391
rclavicle -3.18055e-015 -3.97569e-015
rhumerus -32.6317 -5.78897 -81.06
rradius 40.0156
rwrist 1.35922
rhand -9.71666 12.9976
rfingers 7.12502
rthumb 16.2565 -16.3409
lclavicle -3.18055e-015 -3.97569e-015
lhumerus -31.41 6.93355 85.728
lradius 33.8272
lwrist -4.78655
lhand -11.0829 27.0835
lfingers 7.12502
lthumb 14.9406 56.5246
rfemur -13.442 4.62808 18.9937
rtibia 22.4096
rfoot -11.2348 -9.8945
rtoes 6.15992
lfemur -12.059 -3.84978 -19.7722
ltibia 19.5215
lfoot -11.5268 5.85121
ltoes -1.28243
124
root 0.878711 17.8393 -15.618 7.31458 -2.22613 0.905014
lowerback 5.58161 -0.189289 -2.07035
upperback -0.255356 -0.308578 2.38572
thorax -3.37215 -0.0968174 3.65925
lowerneck -16.6451 -4.13771 -10.1305
upperneck 22.7486 -4.32955 5.23306
head 10.3815 -2.26159 2.95401
rclavicle 1.16289e-014 0
rhumerus -32.645 -5.74297 -81.0846
rradius 40.1452
rwrist 1.33147
rhand -9.69085 13.0513
rfingers 7.12502
rthumb 16.2813 -16.2851
lclavicle 1.16289e-014 0
lhumerus -31.4108 6.70804 85.8348
lradius 34.0259
lwrist -4.55177
lhand -10.9896 27.1035
lfingers 7.12502
lthumb 15.0306 56.5379
rfemur -13.5184 4.70496 19.1236
rtibia 22.3997
rfoot -11.0819 -9.97518
rtoes 6.15416
lfemur -12.1566 -3.90132 -19.6177
ltibia 19.5569
lfoot -11.5145 5.80166
ltoes -0.915486
125
root 0.878703 17.8386 -15.6197 7.40525 -2.25717 0.906599
lowerback 5.48175 -0.149296 -2.02423
upperback -0.201913 -0.252988 2.34509
thorax -3.2653 -0.07274 3.58464
lowerneck -16.8198 -4.18015 -10.0195
upperneck 22.7915 -4.37903 5.14301
head 10.4298 -2.28306 2.89459
rclavicle 1.40143e-014 7.95139e-016
rhumerus -32.4229 -5.75652 -81.1726
rradius 40.1368
rwrist 1.34425
rhand -9.80013 12.9519
rfingers 7.12502
rthumb 16.1761 -16.3932
lclavicle 1.40143e-014 7.95139e-016
lhumerus -31.233 6.25701 86.0173
lradius 33.6031
lwrist -2.54375
lhand -13.9827 23.0413
lfingers 7.12502
lthumb 12.1457 52.6687
rfemur -13.634 4.72333 19.1101
rtibia 22.4079
rfoot -11.0721 -9.97555
rtoes 6.22798
lfemur -12.2562 -3.95203 -19.6047
ltibia 19.5714
lfoot -11.5125 5.86968
ltoes -0.876084
126
root 0.878788 17.8386 -15.6182 7.39768 -2.29694 0.914091
lowerback 5.426 -0.131106 -2.00658
upperback -0.130651 -0.228197 2.32808
thorax -3.16223 -0.0634225 3.55376
lowerneck -16.8211 -4.18137 -10.0453
upperneck 22.7281 -4.37783 5.16889
head 10.4081 -2.28074 2.90759
rclavicle -1.59028e-014 -2.62396e-014
rhumerus -32.2402 -5.62272 -81.2517
rradius 40.1686
rwrist 1.28364
rhand -9.77803 13.0463
rfingers 7.12502
rthumb 16.1974 -16.2971
lclavicle -1.59028e-014 -2.62396e-014
lhumerus -31.1565 5.90148 86.1573
lradius 33.5196
lwrist -1.23362
lhand -15.4545 20.7777
lfingers 7.12502
lthumb 10.7264 50.4839
rfemur -13.6324 4.68894 19.0951
rtibia 22.4236
rfoot -11.1652 -9.88854
rtoes 6.0682
lfemur -12.2694 -3.90522 -19.6358
ltibia 19.5934
lfoot -11.4874 5.90644
ltoes -1.042
127
root 0.877663 17.8403 -15.6176 7.37138 -2.27255 0.953417
lowerback 5.47838 -0.130027 -2.05646
upperback -0.130471 -0.230739 2.32049
thorax -3.19116 -0.0634716 3.57482
lowerneck -16.8031 -4.17962 -10.0862
upperneck 22.7539 -4.37848 5.21497
head 10.4162 -2.27982 2.93152
rclavicle -1.10325e-014 -1.35174e-014
rhumerus -32.1718 -5.55836 -81.288
rradius 40.1969
rwrist 1.36315
rhand -9.6727 13.1328
rfingers 7.12502
rthumb 16.2988 -16.2022
lclavicle -1.10325e-014 -1.35174e-014
lhumerus -31.1401 5.88354 86.1609
lradius 33.7294
lwrist -1.68217
lhand -14.8914 21.9533
lfingers 7.12502
lthumb 11.2695 51.6305
rfemur -13.5955 4.70516 19.0596
rtibia 22.4327
rfoot -11.1732 -9.90677
rtoes 6.0682
lfemur -12.2734 -3.84245 -19.6806
ltibia 19.6205
lfoot -11.4795 5.82691
ltoes -0.719517
128
root 0.876408 17.8396 -15.6193 7.38795 -2.19635 0.913666
lowerback 5.57871 -0.15182 -2.01925
upperback -0.197613 -0.257121 2.34222
thorax -3.31508 -0.0741472 3.58014
lowerneck -16.6707 -4.17778 -10.1363
upperneck 22.7995 -4.38044 5.22505
head 10.4095 -2.28648 2.94513
rclavicle -1.49089e-015 1.59028e-014
rhumerus -32.2662 -5.42566 -81.3139
rradius 40.3522
rwrist 1.35844
rhand -9.57472 12.9731
rfingers 7.12502
rthumb 16.3932 -16.3541
lclavicle -1.49089e-015 1.59028e-014
lhumerus -31.0681 6.26869 85.9804
lradius 34.1581
lwrist -4.17002
lhand -11.4633 26.362
lfingers 7.12502
lthumb 14.5741 55.83
rfemur -13.5965 4.69831 19.1188
rtibia 22.412
rfoot -11.128 -9.94792
rtoes 6.3853
lfemur -12.3328 -3.78543 -19.6197
ltibia 19.6518
lfoot -11.4952 5.72263
ltoes -1.17433
129
root 0.877719 17.839 -15.618 7.39076 -2.15024 0.871762
lowerback 5.61254 -0.163049 -1.93417
upperback -0.196042 -0.266757 2.34314
thorax -3.33204 -0.0801444 3.53404
lowerneck -16.5997 -4.1944 -10.1352
upperneck 22.7461 -4.40373 5.20003
head 10.3781 -2.30022 2.93251
rclavicle 7.95139e-016 1.59028e-014
rhumerus -32.2451 -5.30166 -81.3715
rradius 40.4819
rwrist 1.26969
rhand -9.6408 12.7333
rfingers 7.12502
rthumb 16.3295 -16.5992
lclavicle 7.95139e-016 1.59028e-014
lhumerus -30.9746 5.93771 86.2017
lradius 33.8456
lwrist -2.37754
lhand -14.1267 23.8367
lfingers 7.12502
lthumb 12.007 53.4723
rfemur -13.5808 4.67436 19.1618
rtibia 22.3881
rfoot -11.145 -9.9521
rtoes 6.58766
lfemur -12.3354 -3.77017 -19.5795
ltibia 19.6695
lfoot -11.5179 5.70789
ltoes -2.1405
130
root 0.877975 17.8399 -15.6135 7.39319 -2.18886 0.892398
lowerback 5.56134 -0.154549 -1.95312
upperback -0.152956 -0.256814 2.33662
thorax -3.25936 -0.0766372 3.53624
lowerneck -16.584 -4.20085 -10.1597
upperneck 22.6876 -4.41027 5.21729
head 10.3556 -2.30269 2.94125
rclavicle -5.06901e-015 2.22639e-014
rhumerus -32.0853 -5.21264 -81.4291
rradius 40.5038
rwrist 1.17911
rhand -9.79534 12.2488
rfingers 7.12502
rthumb 16.1807 -17.0958
lclavicle -5.06901e-015 2.22639e-014
lhumerus -30.896 5.80107 86.2998
lradius 33.4759
lwrist -1.24729
lhand -17.7363 17.8765
lfingers 7.12502
lthumb 8.52479 47.6844
rfemur -13.5506 4.66914 19.1308
rtibia 22.3547
rfoot -11.1937 -9.94947
rtoes 6.40955
lfemur -12.3316 -3.78469 -19.6168
ltibia 19.7053
lfoot -11.5324 5.77428
ltoes -1.88599
131
root 0.877685 17.8413 -15.6122 7.39499 -2.18205 0.862083
lowerback 5.58636 -0.147485 -1.92074
upperback -0.149526 -0.245205 2.34608
thorax -3.27083 -0.0711799 3.52702
lowerneck -16.4417 -4.22894 -10.2165
upperneck 22.5936 -4.46101 5.27247
head 10.3017 -2.32521 2.96352
rclavicle -7.55382e-015 2.22639e-014
rhumerus -32.0368 -5.1594 -81.4453
rradius 40.6013
rwrist 1.13808
rhand -9.91116 11.961
rfingers 7.12502
rthumb 16.0692 -17.3927
lclavicle -7.55382e-015 2.22639e-014
lhumerus -30.7938 6.243 86.0082
lradius 34.4965
lwrist -4.90009
lhand -13.3888 23.4626
lfingers 7.12502
lthumb 12.7183 53.0553
rfemur -13.5377 4.6809 19.1672
rtibia 22.3479
rfoot -11.2112 -9.93122
rtoes 6.27497
lfemur -12.3278 -3.81932 -19.5729
ltibia 19.743
lfoot -11.5442 5.76978
ltoes -0.93635
132
root 0.878689 17.8411 -15.6111 7.33161 -2.13152 0.783565
lowerback 5.7382 -0.158255 -1.84194
upperback -0.168452 -0.253783 2.39327
thorax -3.37528 -0.0745215 3.534
lowerneck -16.3717 -4.24466 -10.2209
upperneck 22.5876 -4.47849 5.2295
head 10.2872 -2.3395 2.94685
rclavicle 1.09332e-015 -2.06736e-014
rhumerus -32.0973 -5.00787 -81.44
rradius 40.764
rwrist 1.11227
rhand -9.96929 12.1666
rfingers 7.12502
rthumb 16.0132 -17.1916
lclavicle 1.09332e-015 -2.06736e-014
lhumerus -30.7631 6.01883 86.1768
lradius 34.7096
lwrist -3.93184
lhand -10.2816 29.2987
lfingers 7.12502
lthumb 15.7124 58.6808
rfemur -13.4675 4.61945 19.2588
rtibia 22.3646
rfoot -11.2372 -9.87575
rtoes 6.39551
lfemur -12.2227 -3.87852 -19.4628
ltibia 19.7788
lfoot -11.6717 5.69388
ltoes -0.508232
133
root 0.87703 17.8367 -15.6089 7.32086 -2.1487 0.790011
lowerback 5.77025 -0.130062 -1.84186
upperback -0.154879 -0.217054 2.37863
thorax -3.38205 -0.0564208 3.51579
lowerneck -16.4065 -4.2412 -10.1372
upperneck 22.6346 -4.47733 5.16378
head 10.3068 -2.33942 2.90966
rclavicle -1.3418e-014 -1.03368e-014
rhumerus -32.1479 -4.91622 -81.4919
rradius 41.0142
rwrist 1.01939
rhand -9.9451 12.1471
rfingers 7.12502
rthumb 16.0365 -17.2092
lclavicle -1.3418e-014 -1.03368e-014
lhumerus -30.7103 5.91959 86.2036
lradius 34.878
lwrist -3.97582
lhand -15.5084 22.6116
lfingers 7.12502
lthumb 10.6744 52.3204
rfemur -13.462 4.6191 19.2605
rtibia 22.3819
rfoot -11.218 -9.88708
rtoes 6.3317
lfemur -12.2201 -3.8102 -19.4619
ltibia 19.8165
lfoot -11.7358 5.62333
ltoes -0.850326
134
root 0.874951 17.8342 -15.6063 7.30792 -2.21015 0.804906
lowerback 5.74917 -0.103735 -1.86098
upperback -0.107588 -0.18417 2.36022
thorax -3.32367 -0.041374 3.50403
lowerneck -16.4548 -4.25366 -10.1561
upperneck 22.6812 -4.49013 5.18145
head 10.335 -2.34479 2.9174
rclavicle -1.799e-014 -1.66979e-014
rhumerus -32.1122 -4.90013 -81.5515
rradius 41.2156
rwrist 0.994877
rhand -9.95691 12.2837
rfingers 7.12502
rthumb 16.0251 -17.0736
lclavicle -1.799e-014 -1.66979e-014
lhumerus -30.6221 5.90244 86.1976
lradius 34.9418
lwrist -4.16358
lhand -15.5917 22.1855
lfingers 7.12502
lthumb 10.594 51.8985
rfemur -13.4694 4.66497 19.2486
rtibia 22.397
rfoot -11.2291 -9.90855
rtoes 6.02661
lfemur -12.2291 -3.69557 -19.4937
ltibia 19.8396
lfoot -11.7041 5.60381
ltoes -1.10105
